<svg width="19" height="19" viewBox="0 0 19 19" fill="none" xmlns="http://www.w3.org/2000/svg">
<g clip-path="url(#clip0_56_1175)">
<path opacity="0.4" d="M0 9.50001C0 14.7473 4.25273 19 9.5 19C14.7473 19 19 14.7473 19 9.50001C19 8.67989 18.8961 7.88575 18.6994 7.12501C17.7531 7.12501 16.8105 7.12501 15.8643 7.12501C15.6008 7.12501 15.3633 7.27344 15.2445 7.50723C15.0145 7.96739 14.4764 8.19005 13.9865 8.02676C13.8307 7.97481 13.6785 7.92286 13.5227 7.87091C13.2369 7.77442 12.9252 7.84864 12.7137 8.06016C12.5764 8.19747 12.5764 8.42012 12.7137 8.55743C13.1293 8.97305 13.5412 9.38497 13.9568 9.80059C13.9791 9.82286 14.0014 9.84883 14.0236 9.87481C14.0459 9.90079 14.0645 9.92677 14.083 9.95274C14.1201 10.0084 14.1498 10.0641 14.1758 10.1234C14.2018 10.1828 14.2203 10.2459 14.2314 10.309C14.2389 10.3424 14.2426 10.3721 14.2463 10.4055C14.25 10.4389 14.25 10.4686 14.25 10.4871V10.502C14.25 10.5094 14.25 10.5131 14.25 10.5168C14.25 10.5316 14.25 10.5576 14.2463 10.5836C14.2426 10.6133 14.2389 10.6393 14.2352 10.6652C14.224 10.7209 14.2129 10.7729 14.1943 10.8248C14.1572 10.9287 14.1053 11.0215 14.0385 11.1068C13.9049 11.2775 13.7156 11.4037 13.4967 11.4594C13.4299 11.4742 13.3668 11.4928 13.3 11.5076C13.159 11.541 13.0625 11.6672 13.0625 11.8119C13.0625 11.9604 13.0625 12.1088 13.0625 12.2609C13.0625 12.2647 13.0625 12.2684 13.0625 12.2721C13.0625 12.2981 13.0625 12.324 13.0625 12.3537V12.3686C13.0625 12.3908 13.0588 12.4168 13.0588 12.4465C13.0514 12.517 13.0439 12.5801 13.0365 12.6432C13.0143 12.7693 12.9846 12.8918 12.9437 13.0143C12.8621 13.2555 12.7434 13.4818 12.5912 13.6897C12.2758 14.1127 11.9566 14.5358 11.6412 14.9551C11.4186 15.2557 11.066 15.4301 10.6912 15.4301C10.0344 15.4301 9.50371 14.8994 9.50371 14.2426C9.50371 13.6488 9.50371 13.0551 9.50371 12.4613C9.50371 12.4576 9.50371 12.4502 9.50371 12.4465C9.50371 12.4354 9.50371 12.4205 9.5 12.402C9.49629 12.3797 9.49629 12.3611 9.49258 12.3426C9.48516 12.3055 9.47402 12.2684 9.45918 12.2313C9.42949 12.1608 9.38496 12.0977 9.33301 12.042C9.22539 11.9344 9.07695 11.8676 8.91367 11.8676H7.72617C6.74277 11.8676 5.94492 11.0697 5.94492 10.0863C5.94492 9.74122 5.94492 9.39239 5.94492 9.04727C5.94492 8.57969 6.16387 8.1418 6.53867 7.85977L8.00078 6.76505C8.20859 6.60919 8.46094 6.52383 8.7207 6.52383C8.85059 6.52383 8.97676 6.5461 9.09922 6.58692L10.2867 6.98399C10.5539 7.07305 10.8434 7.08419 11.118 7.01739C11.5559 6.90977 11.9937 6.79844 12.4316 6.69083C12.4576 6.6834 12.4799 6.67598 12.4984 6.67227C12.5244 6.66485 12.5467 6.65372 12.5652 6.6463C12.6098 6.62774 12.6506 6.60548 12.6877 6.5795C12.7656 6.52755 12.8361 6.46446 12.8918 6.39395C12.9475 6.32344 12.992 6.23809 13.0254 6.15274C13.0402 6.10821 13.0514 6.06368 13.0588 6.01544C13.0625 5.98946 13.0662 5.96719 13.0662 5.94493C13.0662 5.92266 13.0699 5.9004 13.0699 5.88926V5.87442C13.0699 5.87071 13.0699 5.86329 13.0699 5.85958C13.0699 5.85215 13.0699 5.8336 13.0662 5.81505C13.0662 5.79649 13.0625 5.77423 13.0588 5.75567C13.0514 5.71485 13.0439 5.67774 13.0328 5.64063C13.0105 5.56641 12.9809 5.4959 12.94 5.42911C12.8584 5.29923 12.7396 5.1879 12.5986 5.11739L11.515 4.57559C11.3777 4.5088 11.2145 4.53477 11.1068 4.64239C11.0586 4.69063 11.0104 4.73887 10.9621 4.78712C10.7914 4.95782 10.5576 5.0543 10.3164 5.0543C10.1754 5.0543 10.0344 5.02091 9.9082 4.95782C9.71895 4.86505 9.52969 4.76856 9.34414 4.67579C9.0918 4.54962 8.79121 4.61641 8.61309 4.83536C8.44609 5.04688 8.27539 5.25469 8.1084 5.46622C7.9043 5.72227 7.52207 5.74083 7.29199 5.51075C7.18809 5.40684 7.13242 5.26954 7.13242 5.12481C7.13242 4.63497 7.13242 4.14883 7.13242 3.65899C7.13242 3.62559 7.13242 3.5959 7.12871 3.56622C7.125 3.53653 7.12129 3.50313 7.11758 3.47344C7.10645 3.41036 7.0916 3.35098 7.07305 3.29161C7.03594 3.17286 6.97656 3.06153 6.90234 2.96133C6.40508 2.27481 5.91152 1.59571 5.41797 0.920319C2.21543 2.44551 0 5.71485 0 9.50001Z" fill="#FBE2B4"/>
<path d="M5.41797 0.920312L6.89863 2.95391C7.04707 3.15801 7.125 3.40293 7.125 3.65156V5.11738C7.125 5.26211 7.18438 5.40313 7.28457 5.50332C7.51465 5.7334 7.89688 5.71484 8.10098 5.45879L8.60566 4.82793C8.78008 4.60898 9.08437 4.54219 9.33301 4.66836L9.89707 4.95039C10.0232 5.01348 10.1643 5.04688 10.3053 5.04688C10.5465 5.04688 10.7803 4.95039 10.951 4.77969L11.0957 4.63496C11.2033 4.52734 11.3666 4.50137 11.5039 4.56816L12.5875 5.10996C12.877 5.25469 13.0551 5.54785 13.0551 5.8707C13.0551 6.26035 12.7916 6.59805 12.4131 6.69453L11.0994 7.02109C10.8248 7.08789 10.5391 7.07676 10.2682 6.9877L9.08066 6.59063C8.9582 6.5498 8.83203 6.52754 8.70215 6.52754C8.44238 6.52754 8.19004 6.61289 7.98223 6.76875L6.53125 7.86719C6.15645 8.14922 5.9375 8.58711 5.9375 9.05469V10.0938C5.9375 11.0771 6.73535 11.875 7.71875 11.875H8.90625C9.23281 11.875 9.5 12.1422 9.5 12.4688V14.25C9.5 14.9068 10.0307 15.4375 10.6875 15.4375C11.0623 15.4375 11.4148 15.2631 11.6375 14.9625L12.5875 13.6971C12.8955 13.2852 13.0625 12.7842 13.0625 12.2721V11.823C13.0625 11.6783 13.159 11.5521 13.3 11.5188L13.4967 11.4705C13.9383 11.3592 14.25 10.9621 14.25 10.5057C14.25 10.2422 14.1461 9.98984 13.9605 9.8043L12.7174 8.56113C12.5801 8.42383 12.5801 8.20117 12.7174 8.06387C12.9289 7.85234 13.2406 7.77812 13.5264 7.87461L13.9902 8.03047C14.4801 8.19375 15.0145 7.97109 15.2482 7.51094C15.367 7.27715 15.6045 7.12871 15.868 7.12871H18.7031C17.6455 3.02813 13.9271 0 9.5 0C8.03789 0 6.65371 0.330273 5.41797 0.920312Z" fill="#FBE2B4"/>
</g>
<defs>
<clipPath id="clip0_56_1175">
<rect width="19" height="19" fill="white"/>
</clipPath>
</defs>
</svg>
